<svg width="32" height="28" viewBox="0 0 32 28" fill="none" xmlns="http://www.w3.org/2000/svg">
<path d="M13.6067 7.07039C14.2942 5.14005 17.0947 5.36947 17.4589 7.38597L17.8253 9.41505C17.8465 9.53236 17.8572 9.65132 17.8572 9.77052V14.1324V18.1018C17.8572 18.4881 17.9691 18.8662 18.1794 19.1903L19.6956 21.5274C19.7112 21.5514 19.7379 21.5659 19.7665 21.5659C19.8521 21.5659 19.8834 21.4534 19.8102 21.4091L16.7164 19.5401C16.3552 19.3219 15.9006 19.3314 15.5489 19.5645L12.184 21.7947C10.5818 22.8567 8.55009 21.2674 9.19504 19.4566L10.0725 16.9929C10.3809 16.1271 10.0595 15.1626 9.29339 14.6548L7.18657 13.2584C5.53483 12.1637 6.3099 9.59136 8.29149 9.59136H11.298C12.1439 9.59136 12.8983 9.05923 13.1821 8.26241L13.6067 7.07039Z" fill="#26A17B"/>
<path d="M15.1827 5.62529C15.4983 4.73933 16.7512 4.73932 17.0668 5.62529L18.1256 8.59793C18.5513 9.79317 19.6829 10.5914 20.9517 10.5914H23.9582C24.949 10.5914 25.3365 11.8775 24.5107 12.4249L22.4038 13.8213C21.2547 14.5829 20.7726 16.0297 21.2351 17.3285L22.1126 19.7921C22.4351 20.6975 21.4192 21.4922 20.6181 20.9612L17.7822 19.0815C16.7775 18.4157 15.472 18.4157 14.4674 19.0815L11.6314 20.9612C10.8303 21.4922 9.81444 20.6975 10.1369 19.7921L11.0144 17.3285C11.477 16.0297 10.9948 14.5829 9.84569 13.8213L7.73887 12.4249C6.913 11.8775 7.30054 10.5914 8.29133 10.5914H11.2979C12.5667 10.5914 13.6983 9.79317 14.124 8.59793L15.1827 5.62529Z" stroke="#26A17B" stroke-width="2" stroke-linejoin="bevel"/>
</svg>
