<svg width="21" height="20" viewBox="0 0 21 20" fill="none" xmlns="http://www.w3.org/2000/svg">
<path d="M8.33176 2.28977C8.96288 0.517832 11.4688 0.517833 12.0999 2.28977L13.1587 5.26241C13.4425 6.05924 14.1969 6.59136 15.0427 6.59136H18.0493C20.0308 6.59136 20.8059 9.16368 19.1542 10.2584L17.0474 11.6548C16.2813 12.1626 15.9598 13.1271 16.2682 13.9929L17.1457 16.4566C17.7907 18.2674 15.7589 19.8567 14.1567 18.7947L11.3208 16.9151C10.651 16.4712 9.78064 16.4712 9.1109 16.9151L6.27494 18.7947C4.67271 19.8567 2.641 18.2674 3.28595 16.4566L4.16343 13.9929C4.47181 13.1271 4.15039 12.1626 3.38429 11.6548L1.27747 10.2584C-0.37426 9.16368 0.400802 6.59136 2.3824 6.59136H5.38893C6.23479 6.59136 6.98919 6.05923 7.27299 5.26241L8.33176 2.28977Z" fill="#26A17B"/>
</svg>
